<svg xmlns="http://www.w3.org/2000/svg" width="1200" height="520" viewBox="0 0 1200 520">
  <rect width="1200" height="520" fill="#fbfaf6"/>
  <text x="50" y="48" font-family="Arial" font-size="28" font-weight="700" fill="#0d3b66">Dataset Preparation Lineage</text>
  <g font-family="Arial">
    <rect x="50" y="110" width="180" height="90" rx="14" fill="#d9eaf7" stroke="#0d3b66" stroke-width="2"/>
    <text x="140" y="150" text-anchor="middle" font-size="22" font-weight="700">Configured</text>
    <text x="140" y="178" text-anchor="middle" font-size="18">.oh5 sources</text>
    <rect x="280" y="110" width="200" height="90" rx="14" fill="#f7ead9" stroke="#8c5a1b" stroke-width="2"/>
    <text x="380" y="150" text-anchor="middle" font-size="20" font-weight="700">Labels + field</text>
    <text x="380" y="178" text-anchor="middle" font-size="18">resolution</text>
    <rect x="530" y="110" width="190" height="90" rx="14" fill="#fce4e4" stroke="#8d2b2b" stroke-width="2"/>
    <text x="625" y="150" text-anchor="middle" font-size="21" font-weight="700">Quality</text>
    <text x="625" y="178" text-anchor="middle" font-size="18">filtering</text>
    <rect x="770" y="110" width="180" height="90" rx="14" fill="#e0f3e6" stroke="#2f6f3e" stroke-width="2"/>
    <text x="860" y="150" text-anchor="middle" font-size="21" font-weight="700">Qualified</text>
    <text x="860" y="178" text-anchor="middle" font-size="18">records</text>
    <rect x="990" y="110" width="160" height="90" rx="14" fill="#ede7fb" stroke="#5f4b8b" stroke-width="2"/>
    <text x="1070" y="150" text-anchor="middle" font-size="21" font-weight="700">Balancing</text>
    <text x="1070" y="178" text-anchor="middle" font-size="18">optional</text>
    <rect x="250" y="320" width="210" height="100" rx="16" fill="#fff" stroke="#444" stroke-width="2"/>
    <text x="355" y="360" text-anchor="middle" font-size="22" font-weight="700">Selected records</text>
    <text x="355" y="390" text-anchor="middle" font-size="18">deterministic splits</text>
    <rect x="520" y="320" width="220" height="100" rx="16" fill="#fff" stroke="#444" stroke-width="2"/>
    <text x="630" y="360" text-anchor="middle" font-size="22" font-weight="700">Orientation exports</text>
    <text x="630" y="390" text-anchor="middle" font-size="18">qualified + selected</text>
    <rect x="800" y="320" width="260" height="100" rx="16" fill="#fff" stroke="#444" stroke-width="2"/>
    <text x="930" y="360" text-anchor="middle" font-size="22" font-weight="700">Manifest + HTML summary</text>
    <text x="930" y="390" text-anchor="middle" font-size="18">IPF plots and artifact links</text>
  </g>
  <path d="M230 155 L280 155" stroke="#0d3b66" stroke-width="4" fill="none"/>
  <path d="M480 155 L530 155" stroke="#8c5a1b" stroke-width="4" fill="none"/>
  <path d="M720 155 L770 155" stroke="#8d2b2b" stroke-width="4" fill="none"/>
  <path d="M950 155 L990 155" stroke="#2f6f3e" stroke-width="4" fill="none"/>
  <path d="M1070 200 L1070 250 L355 250 L355 320" stroke="#5f4b8b" stroke-width="4" fill="none"/>
  <path d="M860 200 L860 290 L630 290 L630 320" stroke="#2f6f3e" stroke-width="4" fill="none"/>
  <path d="M355 420 L355 455 L930 455 L930 420" stroke="#444" stroke-width="4" fill="none"/>
</svg>
